<svg width="140" height="40" viewBox="0 0 140 40" fill="none" xmlns="http://www.w3.org/2000/svg">
<g clip-path="url(#clip0_732_4482)">
<path d="M37.2822 15.1574H31.5851C31.3539 15.1574 31.128 15.0624 30.972 14.901L29.1944 13.0284C28.7671 12.6025 28.1825 12.3801 27.5904 12.3835H23.7178C22.495 12.3834 21.5 13.3784 21.5 14.6012V25.3985C21.5 26.6213 22.495 27.6163 23.7178 27.6163H37.2903H37.2924C38.5145 27.6108 39.5054 26.6111 39.5 25.3917V17.3751C39.5 16.1523 38.505 15.1574 37.2822 15.1574ZM38.1435 25.3944C38.1456 25.8692 37.761 26.2578 37.289 26.2598H23.7178C23.243 26.2598 22.8565 25.8732 22.8565 25.3985V14.6012C22.8565 14.1264 23.243 13.7399 23.7178 13.7392H27.608C27.6155 13.7392 27.6229 13.7392 27.6304 13.7392C27.8569 13.7392 28.0767 13.8294 28.2245 13.9759L29.9926 15.8396C30.4077 16.2682 30.9883 16.5138 31.5851 16.5138H37.2822C37.7569 16.5138 38.1435 16.9003 38.1435 17.3751V25.3944H38.1435Z" fill="#0073A4"/>
</g>
<path d="M54.9219 19.8594H52.0234L52.0078 18.4297H54.5391C54.9661 18.4297 55.3281 18.3672 55.625 18.2422C55.9271 18.112 56.1562 17.9271 56.3125 17.6875C56.4688 17.4427 56.5469 17.1484 56.5469 16.8047C56.5469 16.4245 56.474 16.1146 56.3281 15.875C56.1823 15.6354 55.9583 15.4609 55.6562 15.3516C55.3594 15.2422 54.9792 15.1875 54.5156 15.1875H52.6172V25H50.6562V13.625H54.5156C55.1406 13.625 55.6979 13.6849 56.1875 13.8047C56.6823 13.9245 57.1016 14.112 57.4453 14.3672C57.7943 14.6172 58.0573 14.9349 58.2344 15.3203C58.4167 15.7057 58.5078 16.1641 58.5078 16.6953C58.5078 17.1641 58.3958 17.5938 58.1719 17.9844C57.9479 18.3698 57.6172 18.6849 57.1797 18.9297C56.7422 19.1745 56.1979 19.3203 55.5469 19.3672L54.9219 19.8594ZM54.8359 25H51.4062L52.2891 23.4453H54.8359C55.2786 23.4453 55.6484 23.3724 55.9453 23.2266C56.2422 23.0755 56.4635 22.8698 56.6094 22.6094C56.7604 22.3438 56.8359 22.0339 56.8359 21.6797C56.8359 21.3099 56.7708 20.9896 56.6406 20.7188C56.5104 20.4427 56.3047 20.2318 56.0234 20.0859C55.7422 19.9349 55.375 19.8594 54.9219 19.8594H52.7188L52.7344 18.4297H55.6016L56.0469 18.9688C56.6719 18.9896 57.1849 19.1276 57.5859 19.3828C57.9922 19.638 58.2943 19.9688 58.4922 20.375C58.6901 20.7812 58.7891 21.2188 58.7891 21.6875C58.7891 22.4115 58.6302 23.0182 58.3125 23.5078C58 23.9974 57.5495 24.3698 56.9609 24.625C56.3724 24.875 55.6641 25 54.8359 25ZM69.3281 23.3047V19.2734C69.3281 18.9714 69.2734 18.7109 69.1641 18.4922C69.0547 18.2734 68.888 18.1042 68.6641 17.9844C68.4453 17.8646 68.1693 17.8047 67.8359 17.8047C67.5286 17.8047 67.263 17.8568 67.0391 17.9609C66.8151 18.0651 66.6406 18.2057 66.5156 18.3828C66.3906 18.5599 66.3281 18.7604 66.3281 18.9844H64.4531C64.4531 18.651 64.5339 18.3281 64.6953 18.0156C64.8568 17.7031 65.0911 17.4245 65.3984 17.1797C65.7057 16.9349 66.0729 16.7422 66.5 16.6016C66.9271 16.4609 67.4062 16.3906 67.9375 16.3906C68.5729 16.3906 69.1354 16.4974 69.625 16.7109C70.1198 16.9245 70.5078 17.2474 70.7891 17.6797C71.0755 18.1068 71.2188 18.6432 71.2188 19.2891V23.0469C71.2188 23.4323 71.2448 23.7786 71.2969 24.0859C71.3542 24.388 71.4349 24.651 71.5391 24.875V25H69.6094C69.5208 24.7969 69.4505 24.5391 69.3984 24.2266C69.3516 23.9089 69.3281 23.6016 69.3281 23.3047ZM69.6016 19.8594L69.6172 21.0234H68.2656C67.9167 21.0234 67.6094 21.0573 67.3438 21.125C67.0781 21.1875 66.8568 21.2812 66.6797 21.4062C66.5026 21.5312 66.3698 21.6823 66.2812 21.8594C66.1927 22.0365 66.1484 22.237 66.1484 22.4609C66.1484 22.6849 66.2005 22.8906 66.3047 23.0781C66.4089 23.2604 66.5599 23.4036 66.7578 23.5078C66.9609 23.612 67.2057 23.6641 67.4922 23.6641C67.8776 23.6641 68.2135 23.5859 68.5 23.4297C68.7917 23.2682 69.0208 23.0729 69.1875 22.8438C69.3542 22.6094 69.4427 22.388 69.4531 22.1797L70.0625 23.0156C70 23.2292 69.8932 23.4583 69.7422 23.7031C69.5911 23.9479 69.3932 24.1823 69.1484 24.4062C68.9089 24.625 68.6198 24.8047 68.2812 24.9453C67.9479 25.0859 67.5625 25.1562 67.125 25.1562C66.5729 25.1562 66.0807 25.0469 65.6484 24.8281C65.2161 24.6042 64.8776 24.3047 64.6328 23.9297C64.388 23.5495 64.2656 23.1198 64.2656 22.6406C64.2656 22.1927 64.349 21.7969 64.5156 21.4531C64.6875 21.1042 64.9375 20.8125 65.2656 20.5781C65.599 20.3438 66.0052 20.1667 66.4844 20.0469C66.9635 19.9219 67.5104 19.8594 68.125 19.8594H69.6016ZM75.0781 18.1719V28.25H73.1953V16.5469H74.9297L75.0781 18.1719ZM80.5859 20.6953V20.8594C80.5859 21.474 80.513 22.0443 80.3672 22.5703C80.2266 23.0911 80.0156 23.5469 79.7344 23.9375C79.4583 24.3229 79.1172 24.6224 78.7109 24.8359C78.3047 25.0495 77.8359 25.1562 77.3047 25.1562C76.7786 25.1562 76.3177 25.0599 75.9219 24.8672C75.5312 24.6693 75.2005 24.3906 74.9297 24.0312C74.6589 23.6719 74.4401 23.25 74.2734 22.7656C74.112 22.276 73.9974 21.7396 73.9297 21.1562V20.5234C73.9974 19.9036 74.112 19.3411 74.2734 18.8359C74.4401 18.3307 74.6589 17.8958 74.9297 17.5312C75.2005 17.1667 75.5312 16.8854 75.9219 16.6875C76.3125 16.4896 76.7682 16.3906 77.2891 16.3906C77.8203 16.3906 78.2917 16.4948 78.7031 16.7031C79.1146 16.9062 79.4609 17.1979 79.7422 17.5781C80.0234 17.9531 80.2344 18.4062 80.375 18.9375C80.5156 19.4635 80.5859 20.0495 80.5859 20.6953ZM78.7031 20.8594V20.6953C78.7031 20.3047 78.6667 19.9427 78.5938 19.6094C78.5208 19.2708 78.4062 18.974 78.25 18.7188C78.0938 18.4635 77.8932 18.2656 77.6484 18.125C77.4089 17.9792 77.1198 17.9062 76.7812 17.9062C76.4479 17.9062 76.1615 17.9635 75.9219 18.0781C75.6823 18.1875 75.4818 18.3411 75.3203 18.5391C75.1589 18.737 75.0339 18.9688 74.9453 19.2344C74.8568 19.4948 74.7943 19.7786 74.7578 20.0859V21.6016C74.8203 21.9766 74.9271 22.3203 75.0781 22.6328C75.2292 22.9453 75.4427 23.1953 75.7188 23.3828C76 23.5651 76.3594 23.6562 76.7969 23.6562C77.1354 23.6562 77.4245 23.5833 77.6641 23.4375C77.9036 23.2917 78.099 23.0911 78.25 22.8359C78.4062 22.5755 78.5208 22.276 78.5938 21.9375C78.6667 21.599 78.7031 21.2396 78.7031 20.8594ZM83.5 16.5469L85.1094 19.3516L86.75 16.5469H88.8203L86.2578 20.6953L88.9219 25H86.8516L85.1328 22.0781L83.4141 25H81.3359L83.9922 20.6953L81.4375 16.5469H83.5ZM92.0547 22.25L95.375 16.5469H97.2578V25H95.375V19.2891L92.0547 25H90.1719V16.5469H92.0547V22.25ZM103.359 21.3828H100.656L100.641 20.0547H102.859C103.224 20.0547 103.523 20.0182 103.758 19.9453C103.997 19.8724 104.174 19.763 104.289 19.6172C104.404 19.4661 104.461 19.2839 104.461 19.0703C104.461 18.8932 104.427 18.7396 104.359 18.6094C104.292 18.474 104.188 18.3646 104.047 18.2812C103.911 18.1927 103.74 18.1302 103.531 18.0938C103.328 18.0521 103.091 18.0312 102.82 18.0312H101.281V25H99.3984V16.5469H102.82C103.362 16.5469 103.849 16.5938 104.281 16.6875C104.719 16.7812 105.091 16.9245 105.398 17.1172C105.706 17.3099 105.94 17.5547 106.102 17.8516C106.268 18.1432 106.352 18.487 106.352 18.8828C106.352 19.1432 106.294 19.388 106.18 19.6172C106.07 19.8464 105.906 20.0495 105.688 20.2266C105.469 20.4036 105.201 20.5495 104.883 20.6641C104.565 20.7734 104.201 20.8411 103.789 20.8672L103.359 21.3828ZM103.359 25H100.109L100.859 23.5156H103.359C103.693 23.5156 103.969 23.474 104.188 23.3906C104.406 23.3073 104.568 23.1875 104.672 23.0312C104.781 22.8698 104.836 22.6797 104.836 22.4609C104.836 22.237 104.784 22.0443 104.68 21.8828C104.576 21.7214 104.414 21.599 104.195 21.5156C103.982 21.4271 103.703 21.3828 103.359 21.3828H101.211L101.227 20.0547H103.781L104.32 20.5703C104.857 20.6068 105.302 20.7214 105.656 20.9141C106.01 21.1068 106.276 21.349 106.453 21.6406C106.63 21.9323 106.719 22.25 106.719 22.5938C106.719 22.9896 106.643 23.3385 106.492 23.6406C106.346 23.9427 106.128 24.1953 105.836 24.3984C105.549 24.5964 105.198 24.7474 104.781 24.8516C104.365 24.9505 103.891 25 103.359 25Z" fill="#0073A4"/>
<rect x="1" y="1" width="138" height="38" rx="5" stroke="#0073A4" stroke-width="2"/>
<defs>
<clipPath id="clip0_732_4482">
<rect width="18" height="18" fill="white" transform="translate(21.5 11)"/>
</clipPath>
</defs>
</svg>
