<svg width="140" height="40" viewBox="0 0 140 40" fill="none" xmlns="http://www.w3.org/2000/svg">
<path d="M38 14H36.5H34.25V11.75C34.25 11.336 33.9147 11 33.5 11H27.5C27.0853 11 26.75 11.336 26.75 11.75V14H24.5H23C22.5853 14 22.25 14.336 22.25 14.75C22.25 15.164 22.5852 15.5 23 15.5H23.75V26.75C23.75 27.9905 24.7595 29 26 29H35C36.2405 29 37.25 27.9905 37.25 26.75V15.5H38C38.4147 15.5 38.75 15.164 38.75 14.75C38.75 14.336 38.4147 14 38 14ZM28.25 12.5H32.75V14H28.25V12.5ZM35.75 26.75C35.75 27.1633 35.414 27.5 35 27.5H26C25.586 27.5 25.25 27.1632 25.25 26.75V15.5H27.5H33.5H35.75V26.75H35.75Z" fill="#E72525"/>
<path d="M28.25 17C27.8352 17 27.5 17.336 27.5 17.75V24.5C27.5 24.914 27.8352 25.25 28.25 25.25C28.6647 25.25 29 24.914 29 24.5V17.75C29 17.336 28.6647 17 28.25 17Z" fill="#E72525"/>
<path d="M32.75 17C32.3353 17 32 17.336 32 17.75V24.5C32 24.914 32.3353 25.25 32.75 25.25C33.1647 25.25 33.5 24.914 33.5 24.5V17.75C33.5 17.336 33.1647 17 32.75 17Z" fill="#E72525"/>
<path d="M54.75 19.5703L57.0312 13.625H59.2266L55.2656 23.0625L54.9062 23.7734C54.3854 24.7005 53.5417 25.1641 52.375 25.1641L51.5625 25.1172L51.5781 23.5547C51.7031 23.5755 51.9245 23.5859 52.2422 23.5859C52.8047 23.5859 53.2005 23.3464 53.4297 22.8672L53.8359 21.9062L49.9453 13.625H52.1016L54.75 19.5703ZM59.9297 23.4844C60.4557 22.8958 60.8073 22.3385 60.9844 21.8125C61.1667 21.2812 61.276 20.6042 61.3125 19.7812L61.4219 16.5469H67.2891V23.4844H68.4609V27.5156H66.5703V25H61.1484V27.5156H59.2266L59.2344 23.4844H59.9297ZM62.1562 23.4844H65.3984V18.1797H63.2656L63.2109 19.7969C63.138 21.349 62.7865 22.5781 62.1562 23.4844ZM74.8672 25C74.7839 24.8385 74.7109 24.5755 74.6484 24.2109C74.0443 24.8411 73.3047 25.1562 72.4297 25.1562C71.5807 25.1562 70.888 24.9141 70.3516 24.4297C69.8151 23.9453 69.5469 23.3464 69.5469 22.6328C69.5469 21.7318 69.8802 21.0417 70.5469 20.5625C71.2188 20.0781 72.1771 19.8359 73.4219 19.8359H74.5859V19.2812C74.5859 18.8438 74.4635 18.4948 74.2188 18.2344C73.974 17.9688 73.6016 17.8359 73.1016 17.8359C72.6693 17.8359 72.3151 17.9453 72.0391 18.1641C71.763 18.3776 71.625 18.651 71.625 18.9844H69.7266C69.7266 18.5208 69.8802 18.0885 70.1875 17.6875C70.4948 17.2812 70.9115 16.9635 71.4375 16.7344C71.9688 16.5052 72.5599 16.3906 73.2109 16.3906C74.2005 16.3906 74.9896 16.6406 75.5781 17.1406C76.1667 17.6354 76.4688 18.3333 76.4844 19.2344V23.0469C76.4844 23.8073 76.5911 24.4141 76.8047 24.8672V25H74.8672ZM72.7812 23.6328C73.1562 23.6328 73.5078 23.5417 73.8359 23.3594C74.1693 23.1771 74.4193 22.9323 74.5859 22.625V21.0312H73.5625C72.8594 21.0312 72.3307 21.1536 71.9766 21.3984C71.6224 21.6432 71.4453 21.9896 71.4453 22.4375C71.4453 22.8021 71.5651 23.0938 71.8047 23.3125C72.0495 23.526 72.375 23.6328 72.7812 23.6328ZM85.6562 16.5469V25H83.7578V18.0781H81.3672L81.2109 21.0234C81.112 22.4401 80.8385 23.4583 80.3906 24.0781C79.9479 24.6927 79.2682 25 78.3516 25H77.7656L77.7578 23.4219L78.1484 23.3828C78.5651 23.3255 78.8672 23.0729 79.0547 22.625C79.2474 22.1719 79.3698 21.349 79.4219 20.1562L79.5781 16.5469H85.6562ZM92.9531 16.5469H94.8438V25H92.9531V19.3594L89.6406 25H87.75V16.5469H89.6406V22.1875L92.9531 16.5469ZM103.516 18.0547H100.773V25H98.875V18.0547H96.1641V16.5469H103.516V18.0547ZM106.828 19.2344H108.688C109.38 19.2344 109.984 19.3542 110.5 19.5938C111.016 19.8333 111.406 20.1693 111.672 20.6016C111.943 21.0339 112.078 21.5365 112.078 22.1094C112.078 22.9792 111.771 23.6771 111.156 24.2031C110.542 24.7292 109.724 24.9948 108.703 25H104.93V16.5469H106.828V19.2344ZM106.828 20.7578V23.4844H108.68C109.143 23.4844 109.508 23.3698 109.773 23.1406C110.044 22.9062 110.18 22.5755 110.18 22.1484C110.18 21.7214 110.047 21.3854 109.781 21.1406C109.521 20.8906 109.167 20.763 108.719 20.7578H106.828Z" fill="#E72525"/>
<rect x="1" y="1" width="138" height="38" rx="5" stroke="#E72525" stroke-width="2"/>
</svg>
