<svg width="139" height="40" viewBox="0 0 139 40" fill="none" xmlns="http://www.w3.org/2000/svg">
<g clip-path="url(#clip0_38_29)">
<path d="M32.25 25.25H30.2527C29.928 24.1693 28.935 23.375 27.75 23.375C26.565 23.375 25.5728 24.1693 25.2473 25.25H15.75C15.336 25.25 15 25.586 15 26C15 26.414 15.336 26.75 15.75 26.75H25.2472C25.572 27.8307 26.565 28.625 27.75 28.625C28.935 28.625 29.9272 27.8307 30.2527 26.75H32.25C32.6647 26.75 33 26.414 33 26C33 25.586 32.6647 25.25 32.25 25.25ZM27.75 27.125C27.1297 27.125 26.625 26.6203 26.625 26C26.625 25.3797 27.1297 24.875 27.75 24.875C28.3703 24.875 28.875 25.3797 28.875 26C28.875 26.6203 28.3702 27.125 27.75 27.125Z" fill="#0073A4"/>
<path d="M32.25 13.25H30.2527C29.9272 12.1693 28.935 11.375 27.75 11.375C26.565 11.375 25.5728 12.1693 25.2472 13.25H15.75C15.336 13.25 15 13.586 15 14C15 14.414 15.336 14.75 15.75 14.75H25.2472C25.5728 15.8307 26.565 16.625 27.75 16.625C28.935 16.625 29.9273 15.8307 30.2527 14.75H32.25C32.6647 14.75 33 14.414 33 14C33 13.586 32.6647 13.25 32.25 13.25ZM27.75 15.125C27.1297 15.125 26.625 14.6202 26.625 14C26.625 13.3797 27.1297 12.875 27.75 12.875C28.3703 12.875 28.875 13.3797 28.875 14C28.875 14.6202 28.3702 15.125 27.75 15.125Z" fill="#0073A4"/>
<path d="M32.25 19.25H22.7528C22.4272 18.1693 21.435 17.375 20.25 17.375C19.065 17.375 18.0728 18.1693 17.7473 19.25H15.75C15.336 19.25 15 19.586 15 20C15 20.414 15.336 20.75 15.75 20.75H17.7472C18.0728 21.8307 19.065 22.625 20.25 22.625C21.435 22.625 22.4272 21.8307 22.7527 20.75H32.25C32.6647 20.75 33 20.414 33 20C33 19.586 32.6647 19.25 32.25 19.25ZM20.25 21.125C19.6297 21.125 19.125 20.6202 19.125 20C19.125 19.3797 19.6297 18.875 20.25 18.875C20.8702 18.875 21.375 19.3797 21.375 20C21.375 20.6202 20.8702 21.125 20.25 21.125Z" fill="#0073A4"/>
</g>
<path d="M51.6719 18.875V20.4297H45.6328V18.875H51.6719ZM46.1172 14.125V25.5H44.1562V14.125H46.1172ZM53.1797 14.125V25.5H51.2266V14.125H53.1797ZM60.0938 23.8047V19.7734C60.0938 19.4714 60.0391 19.2109 59.9297 18.9922C59.8203 18.7734 59.6536 18.6042 59.4297 18.4844C59.2109 18.3646 58.9349 18.3047 58.6016 18.3047C58.2943 18.3047 58.0286 18.3568 57.8047 18.4609C57.5807 18.5651 57.4062 18.7057 57.2812 18.8828C57.1562 19.0599 57.0938 19.2604 57.0938 19.4844H55.2188C55.2188 19.151 55.2995 18.8281 55.4609 18.5156C55.6224 18.2031 55.8568 17.9245 56.1641 17.6797C56.4714 17.4349 56.8385 17.2422 57.2656 17.1016C57.6927 16.9609 58.1719 16.8906 58.7031 16.8906C59.3385 16.8906 59.901 16.9974 60.3906 17.2109C60.8854 17.4245 61.2734 17.7474 61.5547 18.1797C61.8411 18.6068 61.9844 19.1432 61.9844 19.7891V23.5469C61.9844 23.9323 62.0104 24.2786 62.0625 24.5859C62.1198 24.888 62.2005 25.151 62.3047 25.375V25.5H60.375C60.2865 25.2969 60.2161 25.0391 60.1641 24.7266C60.1172 24.4089 60.0938 24.1016 60.0938 23.8047ZM60.3672 20.3594L60.3828 21.5234H59.0312C58.6823 21.5234 58.375 21.5573 58.1094 21.625C57.8438 21.6875 57.6224 21.7812 57.4453 21.9062C57.2682 22.0312 57.1354 22.1823 57.0469 22.3594C56.9583 22.5365 56.9141 22.737 56.9141 22.9609C56.9141 23.1849 56.9661 23.3906 57.0703 23.5781C57.1745 23.7604 57.3255 23.9036 57.5234 24.0078C57.7266 24.112 57.9714 24.1641 58.2578 24.1641C58.6432 24.1641 58.9792 24.0859 59.2656 23.9297C59.5573 23.7682 59.7865 23.5729 59.9531 23.3438C60.1198 23.1094 60.2083 22.888 60.2188 22.6797L60.8281 23.5156C60.7656 23.7292 60.6589 23.9583 60.5078 24.2031C60.3568 24.4479 60.1589 24.6823 59.9141 24.9062C59.6745 25.125 59.3854 25.3047 59.0469 25.4453C58.7135 25.5859 58.3281 25.6562 57.8906 25.6562C57.3385 25.6562 56.8464 25.5469 56.4141 25.3281C55.9818 25.1042 55.6432 24.8047 55.3984 24.4297C55.1536 24.0495 55.0312 23.6198 55.0312 23.1406C55.0312 22.6927 55.1146 22.2969 55.2812 21.9531C55.4531 21.6042 55.7031 21.3125 56.0312 21.0781C56.3646 20.8438 56.7708 20.6667 57.25 20.5469C57.7292 20.4219 58.276 20.3594 58.8906 20.3594H60.3672ZM67.4062 24.1562C67.7135 24.1562 67.9896 24.0964 68.2344 23.9766C68.4844 23.8516 68.6849 23.6797 68.8359 23.4609C68.9922 23.2422 69.0781 22.9896 69.0938 22.7031H70.8672C70.8568 23.25 70.6953 23.7474 70.3828 24.1953C70.0703 24.6432 69.6562 25 69.1406 25.2656C68.625 25.526 68.0547 25.6562 67.4297 25.6562C66.7839 25.6562 66.2214 25.5469 65.7422 25.3281C65.263 25.1042 64.8646 24.7969 64.5469 24.4062C64.2292 24.0156 63.9896 23.5651 63.8281 23.0547C63.6719 22.5443 63.5938 21.9974 63.5938 21.4141V21.1406C63.5938 20.5573 63.6719 20.0104 63.8281 19.5C63.9896 18.9844 64.2292 18.5312 64.5469 18.1406C64.8646 17.75 65.263 17.4453 65.7422 17.2266C66.2214 17.0026 66.7812 16.8906 67.4219 16.8906C68.099 16.8906 68.6927 17.026 69.2031 17.2969C69.7135 17.5625 70.1146 17.9349 70.4062 18.4141C70.7031 18.888 70.8568 19.4401 70.8672 20.0703H69.0938C69.0781 19.7578 69 19.4766 68.8594 19.2266C68.724 18.9714 68.5312 18.7682 68.2812 18.6172C68.0365 18.4661 67.7422 18.3906 67.3984 18.3906C67.0182 18.3906 66.7031 18.4688 66.4531 18.625C66.2031 18.776 66.0078 18.9844 65.8672 19.25C65.7266 19.5104 65.625 19.8047 65.5625 20.1328C65.5052 20.4557 65.4766 20.7917 65.4766 21.1406V21.4141C65.4766 21.763 65.5052 22.1016 65.5625 22.4297C65.6198 22.7578 65.7188 23.0521 65.8594 23.3125C66.0052 23.5677 66.2031 23.7734 66.4531 23.9297C66.7031 24.0807 67.0208 24.1562 67.4062 24.1562ZM76.2344 17.0469V25.5H74.3438V17.0469H76.2344ZM79.0078 17.0469V18.5312H71.6172V17.0469H79.0078ZM82.1562 18.6719V28.75H80.2734V17.0469H82.0078L82.1562 18.6719ZM87.6641 21.1953V21.3594C87.6641 21.974 87.5911 22.5443 87.4453 23.0703C87.3047 23.5911 87.0938 24.0469 86.8125 24.4375C86.5365 24.8229 86.1953 25.1224 85.7891 25.3359C85.3828 25.5495 84.9141 25.6562 84.3828 25.6562C83.8568 25.6562 83.3958 25.5599 83 25.3672C82.6094 25.1693 82.2786 24.8906 82.0078 24.5312C81.737 24.1719 81.5182 23.75 81.3516 23.2656C81.1901 22.776 81.0755 22.2396 81.0078 21.6562V21.0234C81.0755 20.4036 81.1901 19.8411 81.3516 19.3359C81.5182 18.8307 81.737 18.3958 82.0078 18.0312C82.2786 17.6667 82.6094 17.3854 83 17.1875C83.3906 16.9896 83.8464 16.8906 84.3672 16.8906C84.8984 16.8906 85.3698 16.9948 85.7812 17.2031C86.1927 17.4062 86.5391 17.6979 86.8203 18.0781C87.1016 18.4531 87.3125 18.9062 87.4531 19.4375C87.5938 19.9635 87.6641 20.5495 87.6641 21.1953ZM85.7812 21.3594V21.1953C85.7812 20.8047 85.7448 20.4427 85.6719 20.1094C85.599 19.7708 85.4844 19.474 85.3281 19.2188C85.1719 18.9635 84.9714 18.7656 84.7266 18.625C84.487 18.4792 84.1979 18.4062 83.8594 18.4062C83.526 18.4062 83.2396 18.4635 83 18.5781C82.7604 18.6875 82.5599 18.8411 82.3984 19.0391C82.237 19.237 82.112 19.4688 82.0234 19.7344C81.9349 19.9948 81.8724 20.2786 81.8359 20.5859V22.1016C81.8984 22.4766 82.0052 22.8203 82.1562 23.1328C82.3073 23.4453 82.5208 23.6953 82.7969 23.8828C83.0781 24.0651 83.4375 24.1562 83.875 24.1562C84.2135 24.1562 84.5026 24.0833 84.7422 23.9375C84.9818 23.7917 85.1771 23.5911 85.3281 23.3359C85.4844 23.0755 85.599 22.776 85.6719 22.4375C85.7448 22.099 85.7812 21.7396 85.7812 21.3594ZM88.9062 21.3672V21.1875C88.9062 20.5781 88.9948 20.013 89.1719 19.4922C89.349 18.9661 89.6042 18.5104 89.9375 18.125C90.276 17.7344 90.6875 17.4323 91.1719 17.2188C91.6615 17 92.2135 16.8906 92.8281 16.8906C93.4479 16.8906 94 17 94.4844 17.2188C94.974 17.4323 95.388 17.7344 95.7266 18.125C96.0651 18.5104 96.3229 18.9661 96.5 19.4922C96.6771 20.013 96.7656 20.5781 96.7656 21.1875V21.3672C96.7656 21.9766 96.6771 22.5417 96.5 23.0625C96.3229 23.5833 96.0651 24.0391 95.7266 24.4297C95.388 24.8151 94.9766 25.1172 94.4922 25.3359C94.0078 25.5495 93.4583 25.6562 92.8438 25.6562C92.224 25.6562 91.6693 25.5495 91.1797 25.3359C90.6953 25.1172 90.2839 24.8151 89.9453 24.4297C89.6068 24.0391 89.349 23.5833 89.1719 23.0625C88.9948 22.5417 88.9062 21.9766 88.9062 21.3672ZM90.7891 21.1875V21.3672C90.7891 21.7474 90.8281 22.1068 90.9062 22.4453C90.9844 22.7839 91.1068 23.0807 91.2734 23.3359C91.4401 23.5911 91.6536 23.7917 91.9141 23.9375C92.1745 24.0833 92.4844 24.1562 92.8438 24.1562C93.1927 24.1562 93.4948 24.0833 93.75 23.9375C94.0104 23.7917 94.224 23.5911 94.3906 23.3359C94.5573 23.0807 94.6797 22.7839 94.7578 22.4453C94.8411 22.1068 94.8828 21.7474 94.8828 21.3672V21.1875C94.8828 20.8125 94.8411 20.4583 94.7578 20.125C94.6797 19.7865 94.5547 19.487 94.3828 19.2266C94.2161 18.9661 94.0026 18.763 93.7422 18.6172C93.487 18.4661 93.1823 18.3906 92.8281 18.3906C92.474 18.3906 92.1667 18.4661 91.9062 18.6172C91.651 18.763 91.4401 18.9661 91.2734 19.2266C91.1068 19.487 90.9844 19.7865 90.9062 20.125C90.8281 20.4583 90.7891 20.8125 90.7891 21.1875ZM100.289 22.75L103.609 17.0469H105.492V25.5H103.609V19.7891L100.289 25.5H98.4062V17.0469H100.289V22.75ZM111.406 17.0469V25.5H109.516V17.0469H111.406ZM114.18 17.0469V18.5312H106.789V17.0469H114.18ZM116.836 19.7344H119.328C120.057 19.7344 120.677 19.8568 121.188 20.1016C121.698 20.3464 122.086 20.6875 122.352 21.125C122.622 21.5573 122.758 22.0521 122.758 22.6094C122.758 23.0208 122.682 23.4036 122.531 23.7578C122.38 24.1068 122.156 24.4115 121.859 24.6719C121.568 24.9323 121.208 25.1354 120.781 25.2812C120.359 25.4271 119.875 25.5 119.328 25.5H115.586V17.0469H117.477V24.0078H119.328C119.703 24.0078 120.003 23.9427 120.227 23.8125C120.451 23.6823 120.612 23.513 120.711 23.3047C120.815 23.0964 120.867 22.875 120.867 22.6406C120.867 22.401 120.815 22.1745 120.711 21.9609C120.612 21.7474 120.451 21.5729 120.227 21.4375C120.003 21.3021 119.703 21.2344 119.328 21.2344H116.836V19.7344Z" fill="#0073A4"/>
<rect x="1" y="1" width="137" height="38" rx="5" stroke="#0073A4" stroke-width="2"/>
<defs>
<clipPath id="clip0_38_29">
<rect width="18" height="18" fill="white" transform="translate(15 11)"/>
</clipPath>
</defs>
</svg>
