<svg width="140" height="40" viewBox="0 0 140 40" fill="none" xmlns="http://www.w3.org/2000/svg">
<rect width="140" height="40" rx="6" fill="#0073A4"/>
<path d="M37.4922 25.5H35.5234V15.7188H30.5156V25.5H28.5469V14.125H37.4922V25.5ZM47.1016 21.3594C47.1016 22.6667 46.8047 23.7109 46.2109 24.4922C45.6172 25.2682 44.8203 25.6562 43.8203 25.6562C42.8932 25.6562 42.151 25.3516 41.5938 24.7422V28.75H39.6953V17.0469H41.4453L41.5234 17.9062C42.0807 17.2292 42.8385 16.8906 43.7969 16.8906C44.8281 16.8906 45.6354 17.276 46.2188 18.0469C46.8073 18.8125 47.1016 19.8776 47.1016 21.2422V21.3594ZM45.2109 21.1953C45.2109 20.3516 45.0417 19.6823 44.7031 19.1875C44.3698 18.6927 43.8906 18.4453 43.2656 18.4453C42.4896 18.4453 41.9323 18.7656 41.5938 19.4062V23.1562C41.9375 23.8125 42.5 24.1406 43.2812 24.1406C43.8854 24.1406 44.3568 23.8984 44.6953 23.4141C45.0391 22.9245 45.2109 22.1849 45.2109 21.1953ZM53.9922 17.0469H55.8828V25.5H53.9922V19.8594L50.6797 25.5H48.7891V17.0469H50.6797V22.6875L53.9922 17.0469ZM62.9219 23.1641L65.4219 17.0469H67.7969V25.5H65.8984V19.9062L63.5703 25.5H62.2812L59.9453 19.875V25.5H58.0469V17.0469H60.4375L62.9219 23.1641ZM73.6562 25.6562C72.4531 25.6562 71.4766 25.2786 70.7266 24.5234C69.9818 23.763 69.6094 22.7526 69.6094 21.4922V21.2578C69.6094 20.4141 69.7708 19.6615 70.0938 19C70.4219 18.3333 70.8802 17.8151 71.4688 17.4453C72.0573 17.0755 72.7135 16.8906 73.4375 16.8906C74.5885 16.8906 75.4766 17.2578 76.1016 17.9922C76.7318 18.7266 77.0469 19.7656 77.0469 21.1094V21.875H71.5234C71.5807 22.5729 71.8125 23.125 72.2188 23.5312C72.6302 23.9375 73.1458 24.1406 73.7656 24.1406C74.6354 24.1406 75.3438 23.7891 75.8906 23.0859L76.9141 24.0625C76.5755 24.5677 76.1224 24.9609 75.5547 25.2422C74.9922 25.5182 74.3594 25.6562 73.6562 25.6562ZM73.4297 18.4141C72.9089 18.4141 72.487 18.5964 72.1641 18.9609C71.8464 19.3255 71.6432 19.8333 71.5547 20.4844H75.1719V20.3438C75.1302 19.7083 74.9609 19.2292 74.6641 18.9062C74.3672 18.5781 73.9557 18.4141 73.4297 18.4141ZM85.6875 25.5H83.7891V22.0859H80.5V25.5H78.6016V17.0469H80.5V20.5703H83.7891V17.0469H85.6875V25.5ZM92.9922 17.0469H94.8828V25.5H92.9922V19.8594L89.6797 25.5H87.7891V17.0469H89.6797V22.6875L92.9922 17.0469ZM103.555 18.5547H100.812V25.5H98.9141V18.5547H96.2031V17.0469H103.555V18.5547ZM106.867 19.7344H108.727C109.419 19.7344 110.023 19.8542 110.539 20.0938C111.055 20.3333 111.445 20.6693 111.711 21.1016C111.982 21.5339 112.117 22.0365 112.117 22.6094C112.117 23.4792 111.81 24.1771 111.195 24.7031C110.581 25.2292 109.763 25.4948 108.742 25.5H104.969V17.0469H106.867V19.7344ZM106.867 21.2578V23.9844H108.719C109.182 23.9844 109.547 23.8698 109.812 23.6406C110.083 23.4062 110.219 23.0755 110.219 22.6484C110.219 22.2214 110.086 21.8854 109.82 21.6406C109.56 21.3906 109.206 21.263 108.758 21.2578H106.867Z" fill="white"/>
</svg>
