<svg width="172" height="44" viewBox="0 0 172 44" fill="none" xmlns="http://www.w3.org/2000/svg">
<path d="M62.125 16.625H64.1016V28H62.125V19.8984L57.1328 28H55.1562V16.625H57.1328V24.7344L62.125 16.625ZM66.4297 28V19.5469H69.8594C71.0156 19.5469 71.8958 19.75 72.5 20.1562C73.1042 20.5573 73.4062 21.1354 73.4062 21.8906C73.4062 22.2812 73.2839 22.6328 73.0391 22.9453C72.7995 23.2526 72.4427 23.4896 71.9688 23.6562C72.5208 23.7708 72.9583 24.0026 73.2812 24.3516C73.6042 24.7005 73.7656 25.112 73.7656 25.5859C73.7656 26.3724 73.474 26.9714 72.8906 27.3828C72.3125 27.7943 71.4792 28 70.3906 28H66.4297ZM68.3281 24.3984V26.5H70.4062C71.3802 26.5 71.8672 26.151 71.8672 25.4531C71.8672 24.75 71.3724 24.3984 70.3828 24.3984H68.3281ZM68.3281 23.0391H69.8906C70.9688 23.0391 71.5078 22.7214 71.5078 22.0859C71.5078 21.4193 70.9974 21.0755 69.9766 21.0547H68.3281V23.0391ZM80.4609 28C80.3776 27.8385 80.3047 27.5755 80.2422 27.2109C79.638 27.8411 78.8984 28.1562 78.0234 28.1562C77.1745 28.1562 76.4818 27.9141 75.9453 27.4297C75.4089 26.9453 75.1406 26.3464 75.1406 25.6328C75.1406 24.7318 75.474 24.0417 76.1406 23.5625C76.8125 23.0781 77.7708 22.8359 79.0156 22.8359H80.1797V22.2812C80.1797 21.8438 80.0573 21.4948 79.8125 21.2344C79.5677 20.9688 79.1953 20.8359 78.6953 20.8359C78.263 20.8359 77.9089 20.9453 77.6328 21.1641C77.3568 21.3776 77.2188 21.651 77.2188 21.9844H75.3203C75.3203 21.5208 75.474 21.0885 75.7812 20.6875C76.0885 20.2812 76.5052 19.9635 77.0312 19.7344C77.5625 19.5052 78.1536 19.3906 78.8047 19.3906C79.7943 19.3906 80.5833 19.6406 81.1719 20.1406C81.7604 20.6354 82.0625 21.3333 82.0781 22.2344V26.0469C82.0781 26.8073 82.1849 27.4141 82.3984 27.8672V28H80.4609ZM78.375 26.6328C78.75 26.6328 79.1016 26.5417 79.4297 26.3594C79.763 26.1771 80.013 25.9323 80.1797 25.625V24.0312H79.1562C78.4531 24.0312 77.9245 24.1536 77.5703 24.3984C77.2161 24.6432 77.0391 24.9896 77.0391 25.4375C77.0391 25.8021 77.1589 26.0938 77.3984 26.3125C77.6432 26.526 77.9688 26.6328 78.375 26.6328ZM91.2266 28H89.3281V24.5859H86.0391V28H84.1406V19.5469H86.0391V23.0703H89.3281V19.5469H91.2266V28ZM92.8984 23.6953C92.8984 22.8672 93.0625 22.1224 93.3906 21.4609C93.7188 20.7943 94.1797 20.2839 94.7734 19.9297C95.3672 19.5703 96.0495 19.3906 96.8203 19.3906C97.9609 19.3906 98.8854 19.7578 99.5938 20.4922C100.307 21.2266 100.693 22.2005 100.75 23.4141L100.758 23.8594C100.758 24.6927 100.596 25.4375 100.273 26.0938C99.9557 26.75 99.4974 27.2578 98.8984 27.6172C98.3047 27.9766 97.6172 28.1562 96.8359 28.1562C95.6432 28.1562 94.6875 27.7604 93.9688 26.9688C93.2552 26.1719 92.8984 25.112 92.8984 23.7891V23.6953ZM94.7969 23.8594C94.7969 24.7292 94.9766 25.4115 95.3359 25.9062C95.6953 26.3958 96.1953 26.6406 96.8359 26.6406C97.4766 26.6406 97.974 26.3906 98.3281 25.8906C98.6875 25.3906 98.8672 24.6589 98.8672 23.6953C98.8672 22.8411 98.6823 22.1641 98.3125 21.6641C97.9479 21.1641 97.4505 20.9141 96.8203 20.9141C96.2005 20.9141 95.7083 21.1615 95.3438 21.6562C94.9792 22.1458 94.7969 22.8802 94.7969 23.8594ZM102.508 28V19.5469H105.938C107.094 19.5469 107.974 19.75 108.578 20.1562C109.182 20.5573 109.484 21.1354 109.484 21.8906C109.484 22.2812 109.362 22.6328 109.117 22.9453C108.878 23.2526 108.521 23.4896 108.047 23.6562C108.599 23.7708 109.036 24.0026 109.359 24.3516C109.682 24.7005 109.844 25.112 109.844 25.5859C109.844 26.3724 109.552 26.9714 108.969 27.3828C108.391 27.7943 107.557 28 106.469 28H102.508ZM104.406 24.3984V26.5H106.484C107.458 26.5 107.945 26.151 107.945 25.4531C107.945 24.75 107.451 24.3984 106.461 24.3984H104.406ZM104.406 23.0391H105.969C107.047 23.0391 107.586 22.7214 107.586 22.0859C107.586 21.4193 107.076 21.0755 106.055 21.0547H104.406V23.0391ZM122.625 16.625H124.602V28H122.625V19.8984L117.633 28H115.656V16.625H117.633V24.7344L122.625 16.625ZM126.93 28V19.5469H130.359C131.516 19.5469 132.396 19.75 133 20.1562C133.604 20.5573 133.906 21.1354 133.906 21.8906C133.906 22.2812 133.784 22.6328 133.539 22.9453C133.299 23.2526 132.943 23.4896 132.469 23.6562C133.021 23.7708 133.458 24.0026 133.781 24.3516C134.104 24.7005 134.266 25.112 134.266 25.5859C134.266 26.3724 133.974 26.9714 133.391 27.3828C132.812 27.7943 131.979 28 130.891 28H126.93ZM128.828 24.3984V26.5H130.906C131.88 26.5 132.367 26.151 132.367 25.4531C132.367 24.75 131.872 24.3984 130.883 24.3984H128.828ZM128.828 23.0391H130.391C131.469 23.0391 132.008 22.7214 132.008 22.0859C132.008 21.4193 131.497 21.0755 130.477 21.0547H128.828V23.0391ZM140.961 28C140.878 27.8385 140.805 27.5755 140.742 27.2109C140.138 27.8411 139.398 28.1562 138.523 28.1562C137.674 28.1562 136.982 27.9141 136.445 27.4297C135.909 26.9453 135.641 26.3464 135.641 25.6328C135.641 24.7318 135.974 24.0417 136.641 23.5625C137.312 23.0781 138.271 22.8359 139.516 22.8359H140.68V22.2812C140.68 21.8438 140.557 21.4948 140.312 21.2344C140.068 20.9688 139.695 20.8359 139.195 20.8359C138.763 20.8359 138.409 20.9453 138.133 21.1641C137.857 21.3776 137.719 21.651 137.719 21.9844H135.82C135.82 21.5208 135.974 21.0885 136.281 20.6875C136.589 20.2812 137.005 19.9635 137.531 19.7344C138.062 19.5052 138.654 19.3906 139.305 19.3906C140.294 19.3906 141.083 19.6406 141.672 20.1406C142.26 20.6354 142.562 21.3333 142.578 22.2344V26.0469C142.578 26.8073 142.685 27.4141 142.898 27.8672V28H140.961ZM138.875 26.6328C139.25 26.6328 139.602 26.5417 139.93 26.3594C140.263 26.1771 140.513 25.9323 140.68 25.625V24.0312H139.656C138.953 24.0312 138.424 24.1536 138.07 24.3984C137.716 24.6432 137.539 24.9896 137.539 25.4375C137.539 25.8021 137.659 26.0938 137.898 26.3125C138.143 26.526 138.469 26.6328 138.875 26.6328ZM151.727 28H149.828V24.5859H146.539V28H144.641V19.5469H146.539V23.0703H149.828V19.5469H151.727V28Z" fill="#002C44"/>
<rect opacity="0.05" width="44" height="44" rx="22" fill="#002C44"/>
<g opacity="0.5">
<path d="M26.978 21.346C27.623 20.389 28 19.238 28 18V16C28 12.691 25.309 10 22 10C18.691 10 16 12.691 16 16V18C16 19.238 16.377 20.389 17.022 21.346C14.026 23.074 12 26.3 12 30V31C12 32.654 13.346 34 15 34H29C30.654 34 32 32.654 32 31V30C32 26.3 29.974 23.074 26.978 21.346ZM18 16C18 13.794 19.794 12 22 12C24.206 12 26 13.794 26 16V18C26 20.206 24.206 22 22 22C19.794 22 18 20.206 18 18V16ZM30 31C30 31.551 29.551 32 29 32H15C14.449 32 14 31.551 14 31V30C14 26.861 15.818 24.14 18.456 22.831C19.451 23.562 20.674 24 22 24C23.326 24 24.549 23.562 25.544 22.831C28.182 24.14 30 26.861 30 30V31H30Z" fill="#002C44"/>
</g>
<path d="M163 22.4142L164.414 21L167.353 23.889L165.922 25.3204L163 22.4142Z" fill="#002C44"/>
<path d="M170.242 21.0002L171.656 22.4144L167.336 26.7346L165.922 25.3204L170.242 21.0002Z" fill="#002C44"/>
</svg>
