<svg width="140" height="40" viewBox="0 0 140 40" fill="none" xmlns="http://www.w3.org/2000/svg">
<rect width="140" height="40" rx="6" fill="#0073A4"/>
<path d="M39.7266 21.7969C39.612 23.0104 39.1641 23.9583 38.3828 24.6406C37.6016 25.3177 36.5625 25.6562 35.2656 25.6562C34.3594 25.6562 33.5599 25.4427 32.8672 25.0156C32.1797 24.5833 31.6484 23.9714 31.2734 23.1797C30.8984 22.388 30.7031 21.4688 30.6875 20.4219V19.3594C30.6875 18.2865 30.8776 17.3411 31.2578 16.5234C31.638 15.7057 32.1823 15.0755 32.8906 14.6328C33.6042 14.1901 34.4271 13.9688 35.3594 13.9688C36.6146 13.9688 37.625 14.3099 38.3906 14.9922C39.1562 15.6745 39.6016 16.638 39.7266 17.8828H37.7578C37.6641 17.0651 37.4245 16.4766 37.0391 16.1172C36.6589 15.7526 36.099 15.5703 35.3594 15.5703C34.5 15.5703 33.8385 15.8854 33.375 16.5156C32.9167 17.1406 32.6823 18.0599 32.6719 19.2734V20.2812C32.6719 21.5104 32.8906 22.4479 33.3281 23.0938C33.7708 23.7396 34.4167 24.0625 35.2656 24.0625C36.0417 24.0625 36.625 23.888 37.0156 23.5391C37.4062 23.1901 37.6536 22.6094 37.7578 21.7969H39.7266ZM40.9609 21.1953C40.9609 20.3672 41.125 19.6224 41.4531 18.9609C41.7812 18.2943 42.2422 17.7839 42.8359 17.4297C43.4297 17.0703 44.112 16.8906 44.8828 16.8906C46.0234 16.8906 46.9479 17.2578 47.6562 17.9922C48.3698 18.7266 48.7552 19.7005 48.8125 20.9141L48.8203 21.3594C48.8203 22.1927 48.6589 22.9375 48.3359 23.5938C48.0182 24.25 47.5599 24.7578 46.9609 25.1172C46.3672 25.4766 45.6797 25.6562 44.8984 25.6562C43.7057 25.6562 42.75 25.2604 42.0312 24.4688C41.3177 23.6719 40.9609 22.612 40.9609 21.2891V21.1953ZM42.8594 21.3594C42.8594 22.2292 43.0391 22.9115 43.3984 23.4062C43.7578 23.8958 44.2578 24.1406 44.8984 24.1406C45.5391 24.1406 46.0365 23.8906 46.3906 23.3906C46.75 22.8906 46.9297 22.1589 46.9297 21.1953C46.9297 20.3411 46.7448 19.6641 46.375 19.1641C46.0104 18.6641 45.513 18.4141 44.8828 18.4141C44.263 18.4141 43.7708 18.6615 43.4062 19.1562C43.0417 19.6458 42.8594 20.3802 42.8594 21.3594ZM53.2891 19.8281L54.8984 17.0469H57.0078L54.4219 21.2109L57.0938 25.5H55L53.3125 22.6094L51.6328 25.5H49.5234L52.1953 21.2109L49.6172 17.0469H51.7109L53.2891 19.8281ZM65.7031 21.3594C65.7031 22.6667 65.4062 23.7109 64.8125 24.4922C64.2188 25.2682 63.4219 25.6562 62.4219 25.6562C61.4948 25.6562 60.7526 25.3516 60.1953 24.7422V28.75H58.2969V17.0469H60.0469L60.125 17.9062C60.6823 17.2292 61.4401 16.8906 62.3984 16.8906C63.4297 16.8906 64.237 17.276 64.8203 18.0469C65.4089 18.8125 65.7031 19.8776 65.7031 21.2422V21.3594ZM63.8125 21.1953C63.8125 20.3516 63.6432 19.6823 63.3047 19.1875C62.9714 18.6927 62.4922 18.4453 61.8672 18.4453C61.0911 18.4453 60.5339 18.7656 60.1953 19.4062V23.1562C60.5391 23.8125 61.1016 24.1406 61.8828 24.1406C62.487 24.1406 62.9583 23.8984 63.2969 23.4141C63.6406 22.9245 63.8125 22.1849 63.8125 21.1953ZM72.3672 25.5C72.2839 25.3385 72.2109 25.0755 72.1484 24.7109C71.5443 25.3411 70.8047 25.6562 69.9297 25.6562C69.0807 25.6562 68.388 25.4141 67.8516 24.9297C67.3151 24.4453 67.0469 23.8464 67.0469 23.1328C67.0469 22.2318 67.3802 21.5417 68.0469 21.0625C68.7188 20.5781 69.6771 20.3359 70.9219 20.3359H72.0859V19.7812C72.0859 19.3438 71.9635 18.9948 71.7188 18.7344C71.474 18.4688 71.1016 18.3359 70.6016 18.3359C70.1693 18.3359 69.8151 18.4453 69.5391 18.6641C69.263 18.8776 69.125 19.151 69.125 19.4844H67.2266C67.2266 19.0208 67.3802 18.5885 67.6875 18.1875C67.9948 17.7812 68.4115 17.4635 68.9375 17.2344C69.4688 17.0052 70.0599 16.8906 70.7109 16.8906C71.7005 16.8906 72.4896 17.1406 73.0781 17.6406C73.6667 18.1354 73.9688 18.8333 73.9844 19.7344V23.5469C73.9844 24.3073 74.0911 24.9141 74.3047 25.3672V25.5H72.3672ZM70.2812 24.1328C70.6562 24.1328 71.0078 24.0417 71.3359 23.8594C71.6693 23.6771 71.9193 23.4323 72.0859 23.125V21.5312H71.0625C70.3594 21.5312 69.8307 21.6536 69.4766 21.8984C69.1224 22.1432 68.9453 22.4896 68.9453 22.9375C68.9453 23.3021 69.0651 23.5938 69.3047 23.8125C69.5495 24.026 69.875 24.1328 70.2812 24.1328ZM83.1328 25.5H81.2344V22.0859H77.9453V25.5H76.0469V17.0469H77.9453V20.5703H81.2344V17.0469H83.1328V25.5ZM90.4375 17.0469H92.3281V25.5H90.4375V19.8594L87.125 25.5H85.2344V17.0469H87.125V22.6875L90.4375 17.0469ZM101 18.5547H98.2578V25.5H96.3594V18.5547H93.6484V17.0469H101V18.5547ZM104.312 19.7344H106.172C106.865 19.7344 107.469 19.8542 107.984 20.0938C108.5 20.3333 108.891 20.6693 109.156 21.1016C109.427 21.5339 109.562 22.0365 109.562 22.6094C109.562 23.4792 109.255 24.1771 108.641 24.7031C108.026 25.2292 107.208 25.4948 106.188 25.5H102.414V17.0469H104.312V19.7344ZM104.312 21.2578V23.9844H106.164C106.628 23.9844 106.992 23.8698 107.258 23.6406C107.529 23.4062 107.664 23.0755 107.664 22.6484C107.664 22.2214 107.531 21.8854 107.266 21.6406C107.005 21.3906 106.651 21.263 106.203 21.2578H104.312Z" fill="white"/>
</svg>
