<svg width="140" height="40" viewBox="0 0 140 40" fill="none" xmlns="http://www.w3.org/2000/svg">
<rect x="1" y="1" width="138" height="38" rx="5" fill="white"/>
<path d="M42.0391 21.7969H43.9922C43.9297 22.5417 43.7214 23.2057 43.3672 23.7891C43.013 24.3672 42.5156 24.8229 41.875 25.1562C41.2344 25.4896 40.4557 25.6562 39.5391 25.6562C38.8359 25.6562 38.2031 25.5312 37.6406 25.2812C37.0781 25.026 36.5964 24.6667 36.1953 24.2031C35.7943 23.7344 35.487 23.1693 35.2734 22.5078C35.0651 21.8464 34.9609 21.1068 34.9609 20.2891V19.3438C34.9609 18.526 35.0677 17.7865 35.2812 17.125C35.5 16.4635 35.8125 15.8984 36.2188 15.4297C36.625 14.9557 37.112 14.5938 37.6797 14.3438C38.2526 14.0938 38.8958 13.9688 39.6094 13.9688C40.5156 13.9688 41.2812 14.1354 41.9062 14.4688C42.5312 14.8021 43.0156 15.263 43.3594 15.8516C43.7083 16.4401 43.9219 17.1146 44 17.875H42.0469C41.9948 17.3854 41.8802 16.9661 41.7031 16.6172C41.5312 16.2682 41.276 16.0026 40.9375 15.8203C40.599 15.6328 40.1562 15.5391 39.6094 15.5391C39.1615 15.5391 38.7708 15.6224 38.4375 15.7891C38.1042 15.9557 37.8255 16.2005 37.6016 16.5234C37.3776 16.8464 37.2083 17.2448 37.0938 17.7188C36.9844 18.1875 36.9297 18.724 36.9297 19.3281V20.2891C36.9297 20.862 36.9792 21.3828 37.0781 21.8516C37.1823 22.3151 37.3385 22.7135 37.5469 23.0469C37.7604 23.3802 38.0312 23.638 38.3594 23.8203C38.6875 24.0026 39.0807 24.0938 39.5391 24.0938C40.0964 24.0938 40.5469 24.0052 40.8906 23.8281C41.2396 23.651 41.5026 23.3932 41.6797 23.0547C41.862 22.7109 41.9818 22.2917 42.0391 21.7969ZM50.8906 13.3438H52.4141C52.4141 13.8073 52.349 14.1901 52.2188 14.4922C52.0938 14.7891 51.9062 15.0339 51.6562 15.2266C51.4115 15.4141 51.1068 15.5651 50.7422 15.6797C50.3828 15.7943 49.9661 15.8984 49.4922 15.9922C49.0547 16.0859 48.6589 16.2344 48.3047 16.4375C47.9557 16.6354 47.6615 16.9141 47.4219 17.2734C47.1875 17.6276 47.0182 18.0833 46.9141 18.6406C46.8099 19.1979 46.7786 19.8776 46.8203 20.6797V21.2109L45.3281 21.3438V20.8125C45.3281 19.8177 45.4193 18.9505 45.6016 18.2109C45.7839 17.4714 46.0417 16.849 46.375 16.3438C46.7135 15.8333 47.1146 15.4271 47.5781 15.125C48.0469 14.8229 48.5677 14.6146 49.1406 14.5C49.5312 14.4167 49.8568 14.3333 50.1172 14.25C50.3776 14.1615 50.5703 14.0495 50.6953 13.9141C50.8255 13.7734 50.8906 13.5833 50.8906 13.3438ZM49.5703 17.5234C50.1328 17.5234 50.6328 17.6224 51.0703 17.8203C51.5078 18.013 51.8776 18.2839 52.1797 18.6328C52.4818 18.9818 52.7109 19.3932 52.8672 19.8672C53.0286 20.3411 53.1094 20.8568 53.1094 21.4141V21.5859C53.1094 22.1693 53.0234 22.7083 52.8516 23.2031C52.6797 23.6979 52.4271 24.1302 52.0938 24.5C51.7604 24.8646 51.3516 25.151 50.8672 25.3594C50.388 25.5625 49.8385 25.6641 49.2188 25.6641C48.6042 25.6641 48.0547 25.5573 47.5703 25.3438C47.0859 25.1302 46.6771 24.8333 46.3438 24.4531C46.0104 24.0677 45.7578 23.6172 45.5859 23.1016C45.4141 22.5859 45.3281 22.0234 45.3281 21.4141V21.2422C45.3229 21.1328 45.3516 21.026 45.4141 20.9219C45.4818 20.8177 45.5625 20.7057 45.6562 20.5859C45.75 20.4661 45.8333 20.3281 45.9062 20.1719C46.1667 19.6458 46.474 19.1849 46.8281 18.7891C47.1823 18.3932 47.5859 18.0833 48.0391 17.8594C48.4974 17.6354 49.0078 17.5234 49.5703 17.5234ZM49.2031 19.0156C48.7344 19.0156 48.3516 19.1276 48.0547 19.3516C47.763 19.5703 47.5469 19.862 47.4062 20.2266C47.2708 20.5911 47.2031 20.987 47.2031 21.4141V21.5859C47.2031 21.9349 47.2422 22.2656 47.3203 22.5781C47.3984 22.8906 47.5156 23.1667 47.6719 23.4062C47.8333 23.6406 48.0417 23.8255 48.2969 23.9609C48.5573 24.0964 48.8646 24.1641 49.2188 24.1641C49.5781 24.1641 49.8828 24.0964 50.1328 23.9609C50.388 23.8255 50.5938 23.6406 50.75 23.4062C50.9115 23.1667 51.0286 22.8906 51.1016 22.5781C51.1797 22.2656 51.2188 21.9349 51.2188 21.5859V21.4141C51.2188 21.0911 51.1797 20.7865 51.1016 20.5C51.0286 20.2135 50.9115 19.9609 50.75 19.7422C50.5885 19.5182 50.3802 19.3411 50.125 19.2109C49.8698 19.0807 49.5625 19.0156 49.2031 19.0156ZM56.3359 18.6719V28.75H54.4531V17.0469H56.1875L56.3359 18.6719ZM61.8438 21.1953V21.3594C61.8438 21.974 61.7708 22.5443 61.625 23.0703C61.4844 23.5911 61.2734 24.0469 60.9922 24.4375C60.7161 24.8229 60.375 25.1224 59.9688 25.3359C59.5625 25.5495 59.0938 25.6562 58.5625 25.6562C58.0365 25.6562 57.5755 25.5599 57.1797 25.3672C56.7891 25.1693 56.4583 24.8906 56.1875 24.5312C55.9167 24.1719 55.6979 23.75 55.5312 23.2656C55.3698 22.776 55.2552 22.2396 55.1875 21.6562V21.0234C55.2552 20.4036 55.3698 19.8411 55.5312 19.3359C55.6979 18.8307 55.9167 18.3958 56.1875 18.0312C56.4583 17.6667 56.7891 17.3854 57.1797 17.1875C57.5703 16.9896 58.026 16.8906 58.5469 16.8906C59.0781 16.8906 59.5495 16.9948 59.9609 17.2031C60.3724 17.4062 60.7188 17.6979 61 18.0781C61.2812 18.4531 61.4922 18.9062 61.6328 19.4375C61.7734 19.9635 61.8438 20.5495 61.8438 21.1953ZM59.9609 21.3594V21.1953C59.9609 20.8047 59.9245 20.4427 59.8516 20.1094C59.7786 19.7708 59.6641 19.474 59.5078 19.2188C59.3516 18.9635 59.151 18.7656 58.9062 18.625C58.6667 18.4792 58.3776 18.4062 58.0391 18.4062C57.7057 18.4062 57.4193 18.4635 57.1797 18.5781C56.9401 18.6875 56.7396 18.8411 56.5781 19.0391C56.4167 19.237 56.2917 19.4688 56.2031 19.7344C56.1146 19.9948 56.0521 20.2786 56.0156 20.5859V22.1016C56.0781 22.4766 56.1849 22.8203 56.3359 23.1328C56.487 23.4453 56.7005 23.6953 56.9766 23.8828C57.2578 24.0651 57.6172 24.1562 58.0547 24.1562C58.3932 24.1562 58.6823 24.0833 58.9219 23.9375C59.1615 23.7917 59.3568 23.5911 59.5078 23.3359C59.6641 23.0755 59.7786 22.776 59.8516 22.4375C59.9245 22.099 59.9609 21.7396 59.9609 21.3594ZM63.0859 21.3672V21.1875C63.0859 20.5781 63.1745 20.013 63.3516 19.4922C63.5286 18.9661 63.7839 18.5104 64.1172 18.125C64.4557 17.7344 64.8672 17.4323 65.3516 17.2188C65.8411 17 66.3932 16.8906 67.0078 16.8906C67.6276 16.8906 68.1797 17 68.6641 17.2188C69.1536 17.4323 69.5677 17.7344 69.9062 18.125C70.2448 18.5104 70.5026 18.9661 70.6797 19.4922C70.8568 20.013 70.9453 20.5781 70.9453 21.1875V21.3672C70.9453 21.9766 70.8568 22.5417 70.6797 23.0625C70.5026 23.5833 70.2448 24.0391 69.9062 24.4297C69.5677 24.8151 69.1562 25.1172 68.6719 25.3359C68.1875 25.5495 67.638 25.6562 67.0234 25.6562C66.4036 25.6562 65.849 25.5495 65.3594 25.3359C64.875 25.1172 64.4635 24.8151 64.125 24.4297C63.7865 24.0391 63.5286 23.5833 63.3516 23.0625C63.1745 22.5417 63.0859 21.9766 63.0859 21.3672ZM64.9688 21.1875V21.3672C64.9688 21.7474 65.0078 22.1068 65.0859 22.4453C65.1641 22.7839 65.2865 23.0807 65.4531 23.3359C65.6198 23.5911 65.8333 23.7917 66.0938 23.9375C66.3542 24.0833 66.6641 24.1562 67.0234 24.1562C67.3724 24.1562 67.6745 24.0833 67.9297 23.9375C68.1901 23.7917 68.4036 23.5911 68.5703 23.3359C68.737 23.0807 68.8594 22.7839 68.9375 22.4453C69.0208 22.1068 69.0625 21.7474 69.0625 21.3672V21.1875C69.0625 20.8125 69.0208 20.4583 68.9375 20.125C68.8594 19.7865 68.7344 19.487 68.5625 19.2266C68.3958 18.9661 68.1823 18.763 67.9219 18.6172C67.6667 18.4661 67.362 18.3906 67.0078 18.3906C66.6536 18.3906 66.3464 18.4661 66.0859 18.6172C65.8307 18.763 65.6198 18.9661 65.4531 19.2266C65.2865 19.487 65.1641 19.7865 65.0859 20.125C65.0078 20.4583 64.9688 20.8125 64.9688 21.1875ZM75.9766 24.1562C76.2839 24.1562 76.5599 24.0964 76.8047 23.9766C77.0547 23.8516 77.2552 23.6797 77.4062 23.4609C77.5625 23.2422 77.6484 22.9896 77.6641 22.7031H79.4375C79.4271 23.25 79.2656 23.7474 78.9531 24.1953C78.6406 24.6432 78.2266 25 77.7109 25.2656C77.1953 25.526 76.625 25.6562 76 25.6562C75.3542 25.6562 74.7917 25.5469 74.3125 25.3281C73.8333 25.1042 73.4349 24.7969 73.1172 24.4062C72.7995 24.0156 72.5599 23.5651 72.3984 23.0547C72.2422 22.5443 72.1641 21.9974 72.1641 21.4141V21.1406C72.1641 20.5573 72.2422 20.0104 72.3984 19.5C72.5599 18.9844 72.7995 18.5312 73.1172 18.1406C73.4349 17.75 73.8333 17.4453 74.3125 17.2266C74.7917 17.0026 75.3516 16.8906 75.9922 16.8906C76.6693 16.8906 77.263 17.026 77.7734 17.2969C78.2839 17.5625 78.6849 17.9349 78.9766 18.4141C79.2734 18.888 79.4271 19.4401 79.4375 20.0703H77.6641C77.6484 19.7578 77.5703 19.4766 77.4297 19.2266C77.2943 18.9714 77.1016 18.7682 76.8516 18.6172C76.6068 18.4661 76.3125 18.3906 75.9688 18.3906C75.5885 18.3906 75.2734 18.4688 75.0234 18.625C74.7734 18.776 74.5781 18.9844 74.4375 19.25C74.2969 19.5104 74.1953 19.8047 74.1328 20.1328C74.0755 20.4557 74.0469 20.7917 74.0469 21.1406V21.4141C74.0469 21.763 74.0755 22.1016 74.1328 22.4297C74.1901 22.7578 74.2891 23.0521 74.4297 23.3125C74.5755 23.5677 74.7734 23.7734 75.0234 23.9297C75.2734 24.0807 75.5911 24.1562 75.9766 24.1562ZM82.8281 22.75L86.1484 17.0469H88.0312V25.5H86.1484V19.7891L82.8281 25.5H80.9453V17.0469H82.8281V22.75ZM93.9453 17.0469V25.5H92.0547V17.0469H93.9453ZM96.7188 17.0469V18.5312H89.3281V17.0469H96.7188ZM99.375 19.7344H101.867C102.596 19.7344 103.216 19.8568 103.727 20.1016C104.237 20.3464 104.625 20.6875 104.891 21.125C105.161 21.5573 105.297 22.0521 105.297 22.6094C105.297 23.0208 105.221 23.4036 105.07 23.7578C104.919 24.1068 104.695 24.4115 104.398 24.6719C104.107 24.9323 103.747 25.1354 103.32 25.2812C102.898 25.4271 102.414 25.5 101.867 25.5H98.125V17.0469H100.016V24.0078H101.867C102.242 24.0078 102.542 23.9427 102.766 23.8125C102.99 23.6823 103.151 23.513 103.25 23.3047C103.354 23.0964 103.406 22.875 103.406 22.6406C103.406 22.401 103.354 22.1745 103.25 21.9609C103.151 21.7474 102.99 21.5729 102.766 21.4375C102.542 21.3021 102.242 21.2344 101.867 21.2344H99.375V19.7344Z" fill="#0073A4"/>
<rect x="1" y="1" width="138" height="38" rx="5" stroke="#0073A4" stroke-width="2"/>
</svg>
