<svg width="20" height="8" viewBox="0 0 20 8" fill="none" xmlns="http://www.w3.org/2000/svg">
<path d="M3.5179 2.79144L5.04474 0.106952H6.97427L4.60291 3.96791L7.03579 7.89305H5.08389L3.5179 5.16578L1.9519 7.89305H0L2.43289 3.96791L0.0615213 0.106952H1.99105L3.5179 2.79144Z" fill="white"/>
<path d="M9.56376 6.60428H13.1264V7.89305H7.88591V0.106952H9.56376V6.60428Z" fill="white"/>
<path d="M18.3166 5.85027C18.3166 5.54724 18.2047 5.31551 17.981 5.15508C17.7573 4.99109 17.3546 4.81996 16.7729 4.64171C16.1913 4.45989 15.7308 4.28164 15.3915 4.10695C14.4668 3.62923 14.0045 2.98574 14.0045 2.17647C14.0045 1.75579 14.1275 1.38146 14.3736 1.05348C14.6234 0.721925 14.9795 0.463458 15.4418 0.278075C15.9079 0.0926916 16.4299 0 17.0078 0C17.5895 0 18.1078 0.101604 18.5626 0.304813C19.0175 0.504456 19.3699 0.787879 19.6197 1.15508C19.8732 1.52228 20 1.93939 20 2.40642H18.3221C18.3221 2.04991 18.2047 1.77362 17.9698 1.57754C17.7349 1.3779 17.4049 1.27807 16.9799 1.27807C16.5697 1.27807 16.2509 1.36185 16.0235 1.52941C15.796 1.6934 15.6823 1.91087 15.6823 2.18182C15.6823 2.43494 15.8147 2.64706 16.0794 2.81818C16.3479 2.9893 16.7412 3.14973 17.2595 3.29947C18.214 3.57397 18.9094 3.91444 19.3456 4.32086C19.7819 4.72727 20 5.23351 20 5.83957C20 6.51337 19.7334 7.04278 19.2002 7.42781C18.667 7.80927 17.9493 8 17.047 8C16.4206 8 15.8501 7.89127 15.3356 7.6738C14.821 7.45276 14.4277 7.15152 14.1555 6.77005C13.887 6.38859 13.7528 5.94652 13.7528 5.44385H15.4362C15.4362 6.30303 15.9732 6.73262 17.047 6.73262C17.4459 6.73262 17.7573 6.65597 17.981 6.50267C18.2047 6.34581 18.3166 6.12834 18.3166 5.85027Z" fill="white"/>
</svg>
