<svg width="18" height="18" viewBox="0 0 18 18" fill="none" xmlns="http://www.w3.org/2000/svg">
<path d="M17.7184 16.7099L14.046 13.0436C15.2152 11.6621 15.9238 9.8788 15.9238 7.93086C15.9238 3.55757 12.3662 0 7.99292 0C3.61963 0 0.0605469 3.5583 0.0605469 7.9316C0.0605469 12.3049 3.61885 15.8625 7.99141 15.8625C9.87368 15.8625 11.6033 15.2001 12.9644 14.1003L16.6496 17.7795C16.7969 17.926 16.9903 18 17.1836 18C17.377 18 17.5704 17.926 17.7184 17.778C18.013 17.4834 18.0122 17.0053 17.7184 16.7099ZM7.99141 14.3518C4.45125 14.3518 1.57121 11.4718 1.57121 7.9316C1.57121 4.39144 4.45121 1.5114 7.99141 1.5114C11.5316 1.5114 14.4116 4.39144 14.4116 7.9316C14.4116 11.4718 11.5316 14.3518 7.99141 14.3518Z" fill="#002C44"/>
</svg>
